<svg xmlns="http://www.w3.org/2000/svg" xmlns:xlink="http://www.w3.org/1999/xlink" width="2000" zoomAndPan="magnify" viewBox="0 0 1500 1499.999933" height="2000" preserveAspectRatio="xMidYMid meet" version="1.0"><defs><g/><clipPath id="48a4cf02f1"><path d="M 750 0 C 335.785156 0 0 335.785156 0 750 C 0 1164.214844 335.785156 1500 750 1500 C 1164.214844 1500 1500 1164.214844 1500 750 C 1500 335.785156 1164.214844 0 750 0 Z M 750 0 " clip-rule="nonzero"/></clipPath><clipPath id="e37443ab29"><path d="M 0 0 L 1500 0 L 1500 1500 L 0 1500 Z M 0 0 " clip-rule="nonzero"/></clipPath><clipPath id="7561ccc449"><path d="M 750 0 C 335.785156 0 0 335.785156 0 750 C 0 1164.214844 335.785156 1500 750 1500 C 1164.214844 1500 1500 1164.214844 1500 750 C 1500 335.785156 1164.214844 0 750 0 Z M 750 0 " clip-rule="nonzero"/></clipPath><clipPath id="437d41e152"><rect x="0" width="1500" y="0" height="1500"/></clipPath><clipPath id="e96c868ab9"><path d="M 72.269531 298.800781 L 971 298.800781 L 971 714 L 72.269531 714 Z M 72.269531 298.800781 " clip-rule="nonzero"/></clipPath><clipPath id="32cced2a06"><path d="M 231 443 L 632 443 L 632 1201.050781 L 231 1201.050781 Z M 231 443 " clip-rule="nonzero"/></clipPath><clipPath id="fd53625034"><path d="M 332 490 L 1350.269531 490 L 1350.269531 1201.050781 L 332 1201.050781 Z M 332 490 " clip-rule="nonzero"/></clipPath><clipPath id="c6b3d8cabc"><rect x="0" width="593" y="0" height="154"/></clipPath><clipPath id="ab3a044e94"><rect x="0" width="567" y="0" height="290"/></clipPath></defs><g clip-path="url(#48a4cf02f1)"><g transform="matrix(1, 0, 0, 1, 0, 0.000000000000112861)"><g clip-path="url(#437d41e152)"><g clip-path="url(#e37443ab29)"><g clip-path="url(#7561ccc449)"><rect x="-330" width="2160" fill="#ffffff" height="2159.999904" y="-329.999985" fill-opacity="1"/></g></g></g></g></g><g clip-path="url(#e96c868ab9)"><path fill="#c3921c" d="M 601.097656 298.84375 L 72.320312 603.410156 L 72.320312 713.671875 L 601.097656 409.105469 L 970.667969 622.402344 L 970.667969 512.140625 L 601.097656 298.84375 " fill-opacity="1" fill-rule="nonzero"/></g><g clip-path="url(#32cced2a06)"><path fill="#2e2f38" d="M 601.097656 443.160156 L 231.527344 656.457031 L 231.527344 1201.121094 L 292.347656 1201.121094 L 292.347656 656.457031 L 631.511719 460.707031 L 601.097656 443.160156 " fill-opacity="1" fill-rule="nonzero"/></g><g clip-path="url(#fd53625034)"><path fill="#2e2f38" d="M 551.378906 829.429688 C 551.378906 795.679688 578.847656 768.222656 612.605469 768.222656 C 646.367188 768.222656 673.832031 795.679688 673.832031 829.429688 L 673.832031 1163.171875 L 551.378906 1156.296875 Z M 716.011719 1165.53125 L 716.011719 829.429688 C 716.011719 772.335938 669.714844 726.0625 612.605469 726.0625 C 555.503906 726.0625 509.210938 772.335938 509.210938 829.429688 L 509.210938 1153.933594 L 386.960938 1147.074219 L 386.960938 680.148438 L 688.441406 506.15625 L 661.410156 490.550781 L 332.898438 680.148438 L 332.898438 1201.121094 L 1350.335938 1201.121094 L 716.011719 1165.53125 " fill-opacity="1" fill-rule="nonzero"/></g><g transform="matrix(1, 0, 0, 1, 759, 673)"><g clip-path="url(#c6b3d8cabc)"><g fill="#000000" fill-opacity="1"><g transform="translate(3.75493, 123.814533)"><g><path d="M 75.890625 0 L 71.765625 -13.765625 L 37.59375 -13.765625 L 33.46875 0 L 1.421875 0 L 37.015625 -97.59375 L 73.46875 -97.59375 L 109.078125 0 Z M 44.109375 -35.609375 L 65.25 -35.609375 L 55.03125 -70.359375 L 54.46875 -70.359375 Z M 44.109375 -35.609375 "/></g></g></g><g fill="#000000" fill-opacity="1"><g transform="translate(114.106355, 123.814533)"><g><path d="M 94.328125 0 L 94.328125 -35.171875 C 94.328125 -39.523438 94.488281 -43.992188 94.8125 -48.578125 C 95.144531 -53.160156 95.5 -57.015625 95.875 -60.140625 C 96.257812 -63.265625 96.5 -65.25 96.59375 -66.09375 L 96.03125 -66.09375 L 78.015625 0 L 53.46875 0 L 35.3125 -65.953125 L 34.75 -65.953125 C 34.84375 -65.109375 35.101562 -63.144531 35.53125 -60.0625 C 35.957031 -56.988281 36.359375 -53.160156 36.734375 -48.578125 C 37.117188 -43.992188 37.3125 -39.523438 37.3125 -35.171875 L 37.3125 0 L 8.515625 0 L 8.515625 -97.59375 L 52.765625 -97.59375 L 67.515625 -41.28125 L 68.078125 -41.28125 L 82.6875 -97.59375 L 125.390625 -97.59375 L 125.390625 0 Z M 94.328125 0 "/></g></g></g><g fill="#000000" fill-opacity="1"><g transform="translate(248.003187, 123.814533)"><g><path d="M 75.890625 0 L 71.765625 -13.765625 L 37.59375 -13.765625 L 33.46875 0 L 1.421875 0 L 37.015625 -97.59375 L 73.46875 -97.59375 L 109.078125 0 Z M 44.109375 -35.609375 L 65.25 -35.609375 L 55.03125 -70.359375 L 54.46875 -70.359375 Z M 44.109375 -35.609375 "/></g></g></g><g fill="#000000" fill-opacity="1"><g transform="translate(358.354611, 123.814533)"><g><path d="M 80.28125 0 L 39.296875 -47.375 L 39.296875 0 L 10.5 0 L 10.5 -97.59375 L 37.875 -97.59375 L 78.859375 -49.5 L 78.859375 -97.59375 L 107.65625 -97.59375 L 107.65625 0 Z M 80.28125 0 "/></g></g></g><g fill="#000000" fill-opacity="1"><g transform="translate(476.507207, 123.814533)"><g><path d="M 75.890625 0 L 71.765625 -13.765625 L 37.59375 -13.765625 L 33.46875 0 L 1.421875 0 L 37.015625 -97.59375 L 73.46875 -97.59375 L 109.078125 0 Z M 44.109375 -35.609375 L 65.25 -35.609375 L 55.03125 -70.359375 L 54.46875 -70.359375 Z M 44.109375 -35.609375 "/></g></g></g></g></g><g transform="matrix(1, 0, 0, 1, 759, 831)"><g clip-path="url(#ab3a044e94)"><g fill="#000000" fill-opacity="1"><g transform="translate(3.272296, 106.58427)"><g><path d="M 46.078125 0.65625 C 38.429688 0.65625 31.539062 -1.03125 25.40625 -4.40625 C 19.269531 -7.789062 14.457031 -12.476562 10.96875 -18.46875 C 7.476562 -24.457031 5.734375 -31.160156 5.734375 -38.578125 C 5.734375 -46.003906 7.476562 -52.710938 10.96875 -58.703125 C 14.457031 -64.691406 19.285156 -69.375 25.453125 -72.75 C 31.628906 -76.132812 38.539062 -77.828125 46.1875 -77.828125 C 51.914062 -77.828125 57.207031 -76.867188 62.0625 -74.953125 C 66.914062 -73.046875 71.03125 -70.253906 74.40625 -66.578125 L 69.234375 -61.40625 C 63.203125 -67.5 55.59375 -70.546875 46.40625 -70.546875 C 40.3125 -70.546875 34.765625 -69.148438 29.765625 -66.359375 C 24.765625 -63.566406 20.847656 -59.742188 18.015625 -54.890625 C 15.191406 -50.046875 13.78125 -44.609375 13.78125 -38.578125 C 13.78125 -32.554688 15.191406 -27.117188 18.015625 -22.265625 C 20.847656 -17.410156 24.765625 -13.585938 29.765625 -10.796875 C 34.765625 -8.003906 40.3125 -6.609375 46.40625 -6.609375 C 55.664062 -6.609375 63.273438 -9.695312 69.234375 -15.875 L 74.40625 -10.6875 C 71.03125 -7.019531 66.894531 -4.210938 62 -2.265625 C 57.113281 -0.316406 51.804688 0.65625 46.078125 0.65625 Z M 46.078125 0.65625 "/></g></g></g><g fill="#000000" fill-opacity="1"><g transform="translate(82.496698, 106.58427)"><g><path d="M 46.296875 0.65625 C 38.648438 0.65625 31.722656 -1.050781 25.515625 -4.46875 C 19.304688 -7.882812 14.457031 -12.566406 10.96875 -18.515625 C 7.476562 -24.472656 5.734375 -31.160156 5.734375 -38.578125 C 5.734375 -46.003906 7.476562 -52.691406 10.96875 -58.640625 C 14.457031 -64.597656 19.304688 -69.285156 25.515625 -72.703125 C 31.722656 -76.117188 38.648438 -77.828125 46.296875 -77.828125 C 53.941406 -77.828125 60.832031 -76.132812 66.96875 -72.75 C 73.101562 -69.375 77.929688 -64.691406 81.453125 -58.703125 C 84.984375 -52.710938 86.75 -46.003906 86.75 -38.578125 C 86.75 -31.160156 84.984375 -24.457031 81.453125 -18.46875 C 77.929688 -12.476562 73.101562 -7.789062 66.96875 -4.40625 C 60.832031 -1.03125 53.941406 0.65625 46.296875 0.65625 Z M 46.296875 -6.609375 C 52.398438 -6.609375 57.910156 -7.984375 62.828125 -10.734375 C 67.753906 -13.492188 71.613281 -17.316406 74.40625 -22.203125 C 77.195312 -27.097656 78.59375 -32.554688 78.59375 -38.578125 C 78.59375 -44.609375 77.195312 -50.066406 74.40625 -54.953125 C 71.613281 -59.835938 67.753906 -63.65625 62.828125 -66.40625 C 57.910156 -69.164062 52.398438 -70.546875 46.296875 -70.546875 C 40.203125 -70.546875 34.671875 -69.164062 29.703125 -66.40625 C 24.742188 -63.65625 20.847656 -59.835938 18.015625 -54.953125 C 15.191406 -50.066406 13.78125 -44.609375 13.78125 -38.578125 C 13.78125 -32.554688 15.191406 -27.097656 18.015625 -22.203125 C 20.847656 -17.316406 24.742188 -13.492188 29.703125 -10.734375 C 34.671875 -7.984375 40.203125 -6.609375 46.296875 -6.609375 Z M 46.296875 -6.609375 "/></g></g></g><g fill="#000000" fill-opacity="1"><g transform="translate(174.943543, 106.58427)"><g><path d="M 77.046875 -77.15625 L 77.046875 0 L 70.328125 0 L 20.71875 -62.609375 L 20.71875 0 L 12.5625 0 L 12.5625 -77.15625 L 19.296875 -77.15625 L 69 -14.546875 L 69 -77.15625 Z M 77.046875 -77.15625 "/></g></g></g><g fill="#000000" fill-opacity="1"><g transform="translate(264.525523, 106.58427)"><g><path d="M 33.84375 0.65625 C 28.113281 0.65625 22.617188 -0.257812 17.359375 -2.09375 C 12.109375 -3.925781 8.050781 -6.351562 5.1875 -9.375 L 8.375 -15.65625 C 11.164062 -12.863281 14.875 -10.601562 19.5 -8.875 C 24.132812 -7.144531 28.914062 -6.28125 33.84375 -6.28125 C 40.75 -6.28125 45.925781 -7.546875 49.375 -10.078125 C 52.832031 -12.617188 54.5625 -15.910156 54.5625 -19.953125 C 54.5625 -23.035156 53.625 -25.492188 51.75 -27.328125 C 49.875 -29.171875 47.578125 -30.585938 44.859375 -31.578125 C 42.140625 -32.566406 38.359375 -33.648438 33.515625 -34.828125 C 27.703125 -36.296875 23.066406 -37.710938 19.609375 -39.078125 C 16.160156 -40.441406 13.207031 -42.519531 10.75 -45.3125 C 8.289062 -48.101562 7.0625 -51.882812 7.0625 -56.65625 C 7.0625 -60.550781 8.085938 -64.097656 10.140625 -67.296875 C 12.203125 -70.492188 15.363281 -73.046875 19.625 -74.953125 C 23.882812 -76.867188 29.175781 -77.828125 35.5 -77.828125 C 39.90625 -77.828125 44.21875 -77.21875 48.4375 -76 C 52.664062 -74.789062 56.328125 -73.117188 59.421875 -70.984375 L 56.65625 -64.484375 C 53.425781 -66.617188 49.972656 -68.21875 46.296875 -69.28125 C 42.617188 -70.34375 39.019531 -70.875 35.5 -70.875 C 28.738281 -70.875 23.648438 -69.566406 20.234375 -66.953125 C 16.816406 -64.347656 15.109375 -60.988281 15.109375 -56.875 C 15.109375 -53.789062 16.039062 -51.3125 17.90625 -49.4375 C 19.78125 -47.5625 22.132812 -46.128906 24.96875 -45.140625 C 27.800781 -44.148438 31.601562 -43.066406 36.375 -41.890625 C 42.03125 -40.492188 46.601562 -39.113281 50.09375 -37.75 C 53.59375 -36.394531 56.550781 -34.335938 58.96875 -31.578125 C 61.394531 -28.828125 62.609375 -25.097656 62.609375 -20.390625 C 62.609375 -16.492188 61.5625 -12.945312 59.46875 -9.75 C 57.375 -6.550781 54.160156 -4.015625 49.828125 -2.140625 C 45.492188 -0.273438 40.164062 0.65625 33.84375 0.65625 Z M 33.84375 0.65625 "/></g></g></g><g fill="#000000" fill-opacity="1"><g transform="translate(332.29052, 106.58427)"><g><path d="M 27.5625 -70.109375 L 0.4375 -70.109375 L 0.4375 -77.15625 L 62.828125 -77.15625 L 62.828125 -70.109375 L 35.71875 -70.109375 L 35.71875 0 L 27.5625 0 Z M 27.5625 -70.109375 "/></g></g></g><g fill="#000000" fill-opacity="1"><g transform="translate(395.537812, 106.58427)"><g><path d="M 65.265625 0 L 47.625 -24.796875 C 45.632812 -24.578125 43.578125 -24.46875 41.453125 -24.46875 L 20.71875 -24.46875 L 20.71875 0 L 12.5625 0 L 12.5625 -77.15625 L 41.453125 -77.15625 C 51.296875 -77.15625 59.007812 -74.800781 64.59375 -70.09375 C 70.175781 -65.394531 72.96875 -58.929688 72.96875 -50.703125 C 72.96875 -44.679688 71.441406 -39.59375 68.390625 -35.4375 C 65.347656 -31.289062 61 -28.296875 55.34375 -26.453125 L 74.1875 0 Z M 41.234375 -31.421875 C 48.867188 -31.421875 54.707031 -33.109375 58.75 -36.484375 C 62.789062 -39.867188 64.8125 -44.609375 64.8125 -50.703125 C 64.8125 -56.953125 62.789062 -61.75 58.75 -65.09375 C 54.707031 -68.4375 48.867188 -70.109375 41.234375 -70.109375 L 20.71875 -70.109375 L 20.71875 -31.421875 Z M 41.234375 -31.421875 "/></g></g></g><g fill="#000000" fill-opacity="1"><g transform="translate(475.203024, 106.58427)"><g><path d="M 43.65625 0.65625 C 33.65625 0.65625 25.863281 -2.207031 20.28125 -7.9375 C 14.695312 -13.664062 11.90625 -22.003906 11.90625 -32.953125 L 11.90625 -77.15625 L 20.0625 -77.15625 L 20.0625 -33.296875 C 20.0625 -24.328125 22.082031 -17.632812 26.125 -13.21875 C 30.164062 -8.8125 36.007812 -6.609375 43.65625 -6.609375 C 51.375 -6.609375 57.253906 -8.8125 61.296875 -13.21875 C 65.335938 -17.632812 67.359375 -24.328125 67.359375 -33.296875 L 67.359375 -77.15625 L 75.296875 -77.15625 L 75.296875 -32.953125 C 75.296875 -22.003906 72.519531 -13.664062 66.96875 -7.9375 C 61.414062 -2.207031 53.644531 0.65625 43.65625 0.65625 Z M 43.65625 0.65625 "/></g></g></g><g fill="#000000" fill-opacity="1"><g transform="translate(104.016712, 259.79558)"><g><path d="M 46.078125 0.65625 C 38.429688 0.65625 31.539062 -1.03125 25.40625 -4.40625 C 19.269531 -7.789062 14.457031 -12.476562 10.96875 -18.46875 C 7.476562 -24.457031 5.734375 -31.160156 5.734375 -38.578125 C 5.734375 -46.003906 7.476562 -52.710938 10.96875 -58.703125 C 14.457031 -64.691406 19.285156 -69.375 25.453125 -72.75 C 31.628906 -76.132812 38.539062 -77.828125 46.1875 -77.828125 C 51.914062 -77.828125 57.207031 -76.867188 62.0625 -74.953125 C 66.914062 -73.046875 71.03125 -70.253906 74.40625 -66.578125 L 69.234375 -61.40625 C 63.203125 -67.5 55.59375 -70.546875 46.40625 -70.546875 C 40.3125 -70.546875 34.765625 -69.148438 29.765625 -66.359375 C 24.765625 -63.566406 20.847656 -59.742188 18.015625 -54.890625 C 15.191406 -50.046875 13.78125 -44.609375 13.78125 -38.578125 C 13.78125 -32.554688 15.191406 -27.117188 18.015625 -22.265625 C 20.847656 -17.410156 24.765625 -13.585938 29.765625 -10.796875 C 34.765625 -8.003906 40.3125 -6.609375 46.40625 -6.609375 C 55.664062 -6.609375 63.273438 -9.695312 69.234375 -15.875 L 74.40625 -10.6875 C 71.03125 -7.019531 66.894531 -4.210938 62 -2.265625 C 57.113281 -0.316406 51.804688 0.65625 46.078125 0.65625 Z M 46.078125 0.65625 "/></g></g></g><g fill="#000000" fill-opacity="1"><g transform="translate(183.241114, 259.79558)"><g><path d="M 27.5625 -70.109375 L 0.4375 -70.109375 L 0.4375 -77.15625 L 62.828125 -77.15625 L 62.828125 -70.109375 L 35.71875 -70.109375 L 35.71875 0 L 27.5625 0 Z M 27.5625 -70.109375 "/></g></g></g><g fill="#000000" fill-opacity="1"><g transform="translate(246.488406, 259.79558)"><g><path d="M 12.5625 -77.15625 L 20.71875 -77.15625 L 20.71875 0 L 12.5625 0 Z M 12.5625 -77.15625 "/></g></g></g><g fill="#000000" fill-opacity="1"><g transform="translate(279.764858, 259.79558)"><g><path d="M 46.296875 0.65625 C 38.648438 0.65625 31.722656 -1.050781 25.515625 -4.46875 C 19.304688 -7.882812 14.457031 -12.566406 10.96875 -18.515625 C 7.476562 -24.472656 5.734375 -31.160156 5.734375 -38.578125 C 5.734375 -46.003906 7.476562 -52.691406 10.96875 -58.640625 C 14.457031 -64.597656 19.304688 -69.285156 25.515625 -72.703125 C 31.722656 -76.117188 38.648438 -77.828125 46.296875 -77.828125 C 53.941406 -77.828125 60.832031 -76.132812 66.96875 -72.75 C 73.101562 -69.375 77.929688 -64.691406 81.453125 -58.703125 C 84.984375 -52.710938 86.75 -46.003906 86.75 -38.578125 C 86.75 -31.160156 84.984375 -24.457031 81.453125 -18.46875 C 77.929688 -12.476562 73.101562 -7.789062 66.96875 -4.40625 C 60.832031 -1.03125 53.941406 0.65625 46.296875 0.65625 Z M 46.296875 -6.609375 C 52.398438 -6.609375 57.910156 -7.984375 62.828125 -10.734375 C 67.753906 -13.492188 71.613281 -17.316406 74.40625 -22.203125 C 77.195312 -27.097656 78.59375 -32.554688 78.59375 -38.578125 C 78.59375 -44.609375 77.195312 -50.066406 74.40625 -54.953125 C 71.613281 -59.835938 67.753906 -63.65625 62.828125 -66.40625 C 57.910156 -69.164062 52.398438 -70.546875 46.296875 -70.546875 C 40.203125 -70.546875 34.671875 -69.164062 29.703125 -66.40625 C 24.742188 -63.65625 20.847656 -59.835938 18.015625 -54.953125 C 15.191406 -50.066406 13.78125 -44.609375 13.78125 -38.578125 C 13.78125 -32.554688 15.191406 -27.097656 18.015625 -22.203125 C 20.847656 -17.316406 24.742188 -13.492188 29.703125 -10.734375 C 34.671875 -7.984375 40.203125 -6.609375 46.296875 -6.609375 Z M 46.296875 -6.609375 "/></g></g></g><g fill="#000000" fill-opacity="1"><g transform="translate(372.211702, 259.79558)"><g><path d="M 77.046875 -77.15625 L 77.046875 0 L 70.328125 0 L 20.71875 -62.609375 L 20.71875 0 L 12.5625 0 L 12.5625 -77.15625 L 19.296875 -77.15625 L 69 -14.546875 L 69 -77.15625 Z M 77.046875 -77.15625 "/></g></g></g></g></g></svg>